# xmcd
#
# Track frame offsets:
#	150
#	10195
#	25855
#	40606
#	56196
#	69766
#	86772
#	103878
#	119133
#	133604
#	151649
#
# Disc length: 2242 seconds
#
# Revision: 0
# Processed by: cddbd v1.4PL0 Copyright (c) Steve Scherf et al.
# Submitted via: EasyCDDAExtractor 4.6.9.1
#
DISCID=8a08c00b
DTITLE=Tracy Byrd - Truth About Men
DYEAR=2003
DGENRE=Country
TTITLE0=Drinkin'bone                  
TTITLE1=You Feel Good                 
TTITLE2=How'd I Wind Up In Jamaica    
TTITLE3=Tiny Town                     
TTITLE4=The Truth About Men           
TTITLE5=Making Memories Of Us         
TTITLE6=That's What Keeps Her Getting By
TTITLE7=When You Go                   
TTITLE8=Baby Put Your Clothes On      
TTITLE9=Somewhere I Wanna Go          
TTITLE10=Ten Rounds With Jose Cuervo   
EXTD=
EXTT0=
EXTT1=
EXTT2=
EXTT3=
EXTT4=
EXTT5=
EXTT6=
EXTT7=
EXTT8=
EXTT9=
EXTT10=
PLAYORDER=
